<?xml version="1.0" encoding="UTF-8"?>
<!DOCTYPE svg PUBLIC "-//W3C//DTD SVG 1.1//EN" "http://www.w3.org/Graphics/SVG/1.1/DTD/svg11.dtd">
<!-- Creator: CorelDRAW -->
<svg xmlns="http://www.w3.org/2000/svg" xml:space="preserve" width="2000px" height="1600px" version="1.1" style="shape-rendering:geometricPrecision; text-rendering:geometricPrecision; image-rendering:optimizeQuality; fill-rule:evenodd; clip-rule:evenodd"
viewBox="0 0 2000 1600"
 xmlns:xlink="http://www.w3.org/1999/xlink">
 <defs>
  <style type="text/css">
   <![CDATA[
    .fil1 {fill:#002244;fill-rule:nonzero}
    .fil0 {fill:#B71237;fill-rule:nonzero}
    .fil2 {fill:#BEBEBE;fill-rule:nonzero}
    .fil3 {fill:#FEFEFE;fill-rule:nonzero}
   ]]>
  </style>
 </defs>
 <g id="Capa_x0020_1">
  <metadata id="CorelCorpID_0Corel-Layer"/>
  <g id="Stony_x0020_Brook_x0020_Seawolves.cdr">
   <path class="fil0" d="M1593.37 463.05c-9.74,-7.39 -30.12,-17.46 -41.52,-25.01 -11.4,-7.55 -31.39,-24.25 -31.76,-24.53 -2.3,-1.88 -8.69,-9.32 -13.36,-15.61 0,0 -2.74,-3.66 -3.45,-4.61 -0.01,-0.09 0.02,-14.17 0.02,-14.17 0,0 -10.13,-9.5 -10.2,-9.56 1.52,-1 18.08,-11.88 18.08,-11.88l-7.21 -21.46c-1.62,-4.79 -5.9,-17.08 -11.88,-31.84l0.51 -0.07c-2.76,-6.24 -5.66,-12.61 -8.61,-18.84 -5.72,-12.54 -12.22,-25.29 -19.12,-35.86 -0.59,-0.92 -1.14,-1.7 -1.7,-2.54 -0.46,-0.66 -0.88,-1.34 -1.33,-1.96 -0.01,-20.29 -1.03,-38.97 -3.39,-55.34 -9.72,-67.53 -36.89,-103.6 -59.95,-125.98 -7.84,-8.03 -15.77,-14.87 -23.38,-20.61l-51.03 -43.18 3.88 67.99c1.81,30.44 -2.02,56.97 -6.65,74.18 -21.64,-7.99 -54.9,-6.49 -84.05,-2.66 -21.05,1.18 -39.2,3.43 -49.16,4.84 0,0 -6.67,0.94 -13.4,1.9 -43.18,-78.27 -140.54,-117.89 -140.54,-117.89 0,0 25.12,76.65 7.27,160.83 -135.16,25.82 -196.88,66.63 -196.88,66.63 0,0 34.16,21.1 49.86,26.3 -190,63.65 -291.19,226.62 -291.19,226.62l61.36 -11.7c-65.04,73.16 -78.86,142.93 -78.86,142.93 0,0 37.42,-30.95 53.32,-37.41 -37.12,68.06 -31.38,127.33 -31.38,127.33 0,0 168.6,-161.22 370.39,-168.35l-16.1 96.69 69.88 -40.63c-5.3,14.86 -39.39,140.31 -39.39,140.31 104.41,-102.68 260.97,-137.44 308.57,-101.32l11.93 9.3c34.44,27.14 81.6,64.32 136.12,54.7 50.3,-8.85 87.18,-59.5 90.77,-102.2 9.65,-15.87 20.09,-34.11 26.29,-48.22 35.86,-22.52 41.4,-65.68 38.64,-87.43l-1.54 -12.27 -9.87 -7.43 0.01 0.01z"/>
   <path class="fil1" d="M1547.14 468.76l-6.99 17.46 -2.43 -22.58c-7.3,-4.04 -23.49,-16.58 -23.49,-16.58l-6.66 15.29 -5.02 -25.43c-7.16,-5.3 -19.23,-21.51 -19.23,-21.51l-9.34 20.9 0.07 -44.55 -28.05 -26.36 30.27 -19.85c0,0 -23.01,-68.34 -43.47,-90.24 3.06,-129.19 -48,-165.37 -75.65,-189.03 2.07,35.37 -2.68,71.63 -11.16,94.94 -0.14,0.38 -0.27,0.73 -0.41,1.08 12.27,7 29.22,21.63 42.5,51.94 0,0 -23.84,-32.57 -82.92,-43.72 -0.24,-0.04 -0.48,-0.06 -0.72,-0.1 -38.03,-5.54 -91.7,0.33 -107.62,2.31 -1.11,0.13 -3.78,0.47 -6.71,0.83 22.74,11.31 64.68,34.04 79.44,54.53 0,0 -36.97,-11.16 -87.72,-13.43 -3.31,0.12 -5.14,0.25 -5.14,0.25 -44.58,-100.67 -99.35,-121.49 -99.35,-121.49 0,0 4.74,90.21 -1.3,128.45 0,0 -94.97,3.85 -161.28,34.98l70.58 31.28c0,0 -176.85,34.7 -294.22,178.98l49.82 -3.88c0,0 -51.45,46.23 -79.81,96.33l49.89 -20.23c0,0 -41.81,62.53 -57.49,111.91 0,0 172.18,-136.34 368.46,-123.69 -7.94,19.68 -13.94,41.86 -15.52,65.77 0,0 34.81,-27.28 68.82,-47.63 -5.95,26.58 -21.81,97.76 -31.04,142.44 1.63,0.51 173.11,-131.77 274.4,-54.92 31.4,23.83 77.78,66.88 125.35,58.5 39.39,-6.93 69.1,-51.57 67.24,-82.69 0,0 28.53,-46.08 31.35,-59.27 39.18,-15.99 33.2,-63.35 33.2,-63.35 0,0 -20.16,-15.24 -28.65,-17.66l0 0.02z"/>
   <path class="fil0" d="M1331.39 357.82c-2.66,4.57 -3.75,11.87 -1.72,18.06 2.41,7.16 10.69,13.27 19.53,10.75 4.72,-1.36 6.98,-2.58 8.78,-6.12l-7.57 -18.16 -19.02 -4.53 0 0zm-43.12 109.61c-29.28,9.31 -45.43,31.95 -45.43,31.95l44.01 -17.63 10.58 26.49 38.89 -12.05 8.68 35.24 30.29 -8.24 2.54 36.62 29.77 -1.84 1.24 25.27c10.77,-13.64 10.9,-39.28 10.9,-39.28l-33.96 -0.42 -4.13 -35.67 -31.14 9.24 -5.72 -40.25 -42.89 17.8 -13.63 -27.23 0 0z"/>
   <path class="fil2" d="M1322.57 278.77l24.36 48.96 -110.67 -18.17 45.78 45.12c13.93,65.51 74.98,43.66 74.98,43.66 -50.15,-1.02 -45.33,-41.98 -45.33,-41.98l-24.09 -20.81 69.82 13.93 15.31 26.71 43.59 3.04 -33.36 -23.33 -12.91 -31.01 -47.48 -46.12zm-309.36 68.06c-63.85,9.98 -139.06,33.33 -211.35,83.67 71.58,-29.67 159.86,-34.5 159.86,-34.5 -134.48,56.82 -246.45,183.59 -246.45,183.59 188.38,-98.28 318.98,-84.01 318.98,-84.01 23.42,-52.33 59.65,-68.87 59.65,-68.87 0,0 -5.41,-1.43 -14.72,-2.5l-38.85 -6.62c0,0 50.52,-45.34 135.13,-71.36 0,0 -68.98,-13.98 -162.25,0.6zm246.06 36.17c0,0 -117.31,22.7 -166.39,118.92 32.47,-15.5 44.88,-16.32 47.67,-16.17l-35.16 64.51 64.77 -26.05 -86.65 118.3c0,0 102.27,-87.1 183.75,-62.82 22.08,6.6 54.68,13.87 87.19,53.8 34.65,42.54 107.59,51.62 124.54,2.42 0,0 -38.46,1.37 -53.75,-7.64 -10.05,-5.92 -53.72,-35.23 -76.71,-58.93 -23.04,-23.77 -58.89,-38.41 -77.65,-43.25 -18.84,-4.83 -56.79,1.19 -56.79,1.19 0,0 -6.31,-60.14 96.48,-81.22 21.51,-4.4 56.42,4.05 86.75,44.6 30.2,40.51 54.27,55.96 74.36,57.45 17.66,1.29 42.33,1.36 59.88,-8.37 -0.09,-7.65 -1.28,-17.97 -6.52,-20.8 0,0 -6.45,-0.71 -16.56,0.58 0,0 5.96,9.88 9.43,16.16 0,0 -22.69,-0.31 -29.21,-11.46 -3.46,-5.91 -0.07,-25.9 -0.07,-25.9l33.95 -5.18 -53.53 -8.22c0,0 -6.29,-4.91 -12.61,-12.05l35.09 -1.64c0,0 -43.31,-9.35 -47.94,-9.4 0,0 -12.2,-9.15 -18.05,-17.11 0,0 32.43,2.61 38.48,0.86 0,0 -42.09,-11.04 -49.97,-13.83l-16.87 -21.41 40.28 3.38c-8.23,-9.01 -30.94,-16.19 -44.64,-12.4 -13.74,3.79 -27.5,20.55 -28.83,37.85 -24.98,-14.73 -64.25,-29.55 -95.01,-19.98 -30.4,9.47 -78.19,28.91 -78.19,28.91 0,0 15.26,-34.14 68.48,-65.1l0 0z"/>
   <path class="fil3" d="M1106.43 156.89c3,16.44 -0.34,108.18 -21.79,155.04l23.29 -18.59 15.41 16.87 19.37 -23.07 25.64 26.09c0,0 -8.27,-86.33 -61.92,-156.34l0 0zm69.03 189.34c0,0 -248.09,53.21 -365.15,175.69 0,0 106.94,-70.13 204.63,-44.03 0,0 -27.59,-13.01 -60.67,-23.37 50.97,-33.74 101.7,-33.06 125.51,-30.2l-39.45 -6.73c0,0 50.52,-45.34 135.13,-71.36zm-95.68 78.09l14.12 2.4c0,0 -5.27,-1.34 -14.12,-2.4zm227.28 38.21c-2.75,0.44 -5.69,1.03 -8.76,1.85l9.72 18.83 35.16 -16.69c-5.01,-1.85 -16.73,-7.03 -36.12,-3.99zm46.26 7.92l4.09 32.48 26.24 -3.9c0,0 -21.06,-24.65 -30.01,-27.28l-0.32 -1.3zm-73.83 22.93l-39.44 17.01 6.65 -1.08c17.78,-2.31 43.63,5.34 43.63,5.34l-10.84 -21.27 0 0zm51.01 16.67l-30.41 8.51c13.68,3.08 33.85,19.77 33.85,19.77l-3.44 -28.28 0 0zm59.9 -1.8l1.88 27.36 22.8 0.22c0,0 -15.01,-14.14 -24.68,-27.58zm-25.36 30.99l-23.55 5.42c2.52,4.39 24.94,24.38 24.94,24.38l-1.39 -29.8 0 0zm69.05 12.77c-3.64,27.23 -25.39,51.51 -25.39,51.51 26.3,-0.58 48.58,-28.82 52.59,-40.93 0,0 -17.03,-0.63 -27.2,-10.58zm-62.23 21.77l1.92 1.4c2.52,2 21.59,17.16 24.88,19.63 0.02,-4 0.31,-20.64 0.31,-20.64l-27.11 -0.39 0 0zm156.29 -20.65c0,0 -12.42,6.8 -23.3,5.63 0,0 4.87,15.73 0.63,30.66 14,-12.51 22.67,-36.29 22.67,-36.29zm-52.2 9.16c0,0 3.48,17.48 1.04,28.54 14.65,-9.11 19.93,-30.81 19.93,-30.81 0,0 -14.86,2.73 -20.97,2.27zm-7.54 27.62c0,0 -19.05,16.81 -45.87,23.37 0,0 15.59,10.27 32.15,7.09 7.41,-9.5 13.72,-30.46 13.72,-30.46zm27.86 -3.8c-6.91,16.5 -31.18,36.42 -31.18,36.42 3.72,0.77 20.2,0.55 20.2,0.55 0,0 14.03,-19.84 10.98,-36.97l0 0z"/>
   <path class="fil3" d="M1000.93 1150.12c45.26,0.02 90.55,-0.05 135.81,0.02 0.03,82.83 -0.07,165.65 0.05,248.47 -45.29,0.25 -90.57,0.1 -135.89,0.08 0.03,-82.85 0,-165.72 0.03,-248.57zm-36.47 -586.97c80.71,-0.05 161.41,0.1 242.14,-0.08 46.44,43.54 91.95,88.13 138.24,131.85 0.05,91.7 -0.03,183.4 0.05,275.07 -33.1,30.75 -66.33,61.36 -99.63,91.89 40.23,31.08 80.51,62.11 120.74,93.22 0.1,93.19 0.05,186.39 0,279.6 -53.37,50.25 -105.98,101.27 -159.27,151.59 -140.03,0.05 -280.03,-0.12 -420.03,0.08 -0.32,-167.22 -0.05,-334.44 -0.15,-501.68 8.3,0 16.6,0 24.9,0 0.05,158.89 -0.02,317.79 0.05,476.7 128.19,0 256.35,-0.07 384.54,0.03 40.23,-37.79 79.88,-76.17 119.93,-114.16 7.95,-8.1 17,-15.27 24.35,-23.9 0.4,-85.41 0.15,-170.85 0.1,-256.27 -44.91,-34.22 -89.45,-68.94 -134.19,-103.41 37.79,-35.39 76.42,-69.89 113.91,-105.58 -0.5,-84.07 0.05,-168.14 -0.28,-252.19 -41.42,-38.98 -82.17,-78.66 -123.4,-117.84 -68.39,-0.02 -136.81,0.08 -205.2,-0.05 -8.7,-8.55 -17.82,-16.62 -26.8,-24.87zm-555.59 -364.72c52.47,-50.62 105.21,-100.97 157.45,-151.84 83.2,0.05 166.4,-0.03 249.59,0.02 3.67,-0.77 6.04,2.52 8.6,4.44 54.54,49.3 109.65,97.98 164.03,147.4 -0.25,65.48 -0.02,130.95 -0.12,196.43 -85.15,0.03 -170.29,0.03 -255.43,0 -0.02,-44.84 -0.02,-89.7 0,-134.57 -22.88,0 -45.74,-0.05 -68.59,0.03 0.15,59.87 -0.18,119.74 0.15,179.58 51.17,4.16 102.31,8.67 153.51,12.76 6.55,-0.62 10.62,5.01 15.03,8.85 51.72,47.98 103.76,95.58 155.38,143.66 -0.03,104.19 -0.13,208.37 0.07,312.56 -52.19,50.97 -105.06,101.29 -157.52,151.98 -88.68,-0.04 -177.36,0.11 -266.05,-0.09 -52.06,-50.53 -104.2,-101 -156.05,-151.79 0.1,-64.23 0,-128.47 0.03,-192.7 85.16,0 170.31,0 255.47,0 0.1,43.67 -0.22,87.32 0.15,130.96 22.71,-0.13 45.44,-0.25 68.15,0.07 0.64,-57.8 0,-115.6 0.32,-173.4 -0.65,-2.61 1.55,-8.52 -2.74,-8.55 -51.37,-3.68 -102.71,-7.85 -154.06,-11.56 -55.71,-50.72 -111.39,-101.44 -167.24,-151.99 -0.15,-104.08 0.1,-208.17 -0.13,-312.25zm24.95 11.04l0 0c0.05,96.41 0.08,192.84 0,289.25 49.4,45.46 99.38,90.3 148.88,135.64 2.39,2.36 5.31,4.18 8.82,4.03 55.63,4.19 111.26,8.53 166.89,12.64 0.23,76.84 0.05,153.68 0.08,230.53 -39.85,-0.03 -79.73,-0.03 -119.59,0 -0.07,-43.62 0.03,-87.24 -0.05,-130.88 -68.29,0.02 -136.61,0.02 -204.9,0 -0.18,52.04 -0.03,104.08 -0.08,156.12 47.08,46.24 94.54,92.1 141.92,138.06 81.56,-0.1 163.13,0 244.69,-0.05 47.63,-46.06 95.58,-91.8 143.04,-138.01 -0.08,-96.9 0.15,-193.78 -0.1,-290.69 -50.05,-45.84 -99.97,-91.85 -149.6,-138.16 -58.3,-5.18 -116.62,-10.01 -174.94,-14.68 0.02,-76.16 -0.03,-152.33 0.02,-228.5 39.86,0.02 79.74,0.02 119.59,0 0.07,44.86 0,89.73 0.02,134.59 68.35,0 136.66,0.02 205.01,0 0.02,-53.22 -0.03,-106.4 0.02,-159.59 -51.49,-46.11 -102.84,-92.4 -154.45,-138.31 -77.42,0.1 -154.81,0.03 -232.2,0.03 -47.38,46.31 -95.36,91.99 -143.07,137.98zm569.58 541.23c44.44,0 88.88,0 133.34,0 -0.05,79.16 0.1,158.3 -0.07,237.46 -44.39,-0.1 -88.78,-0.1 -133.18,0 -0.19,-79.16 -0.04,-158.3 -0.09,-237.46zm25.54 25.55l0 0c0.03,62.11 -0.07,124.22 0.05,186.34 27.42,-0.05 54.81,0 82.23,-0.03 -0.03,-62.11 0,-124.2 -0.03,-186.31 -27.41,-0.02 -54.83,-0.02 -82.25,0zm-2.49 398.79l0 0c-0.02,66.05 0,132.1 0,198.15 28.24,0 56.5,0 84.74,-0.03 0,-66.02 0.03,-132.07 0,-198.12 -28.24,-0.02 -56.5,-0.02 -84.74,0z"/>
   <path class="fil1" d="M1026.45 1175.04c28.24,-0.02 56.5,-0.02 84.74,0 0.03,66.05 0,132.1 0,198.12 -28.24,0.03 -56.5,0.03 -84.74,0.03 0,-66.05 -0.02,-132.1 0,-198.15zm-465.61 -1142.78l264.27 0c59.57,53.06 118.82,106.5 178.29,159.66 0,72.43 0.02,144.86 0,217.32 -94.92,0.02 -189.83,0 -284.74,0 -0.05,-44.87 0.02,-89.73 -0.05,-134.59 -13.29,0 -26.57,0 -39.83,0 -0.05,50.62 0.02,101.24 -0.05,151.86 50.55,4.16 101.09,8.43 151.64,12.69 39.31,36.39 78.66,72.75 118.09,108.99 87.96,0 175.94,0 263.9,0 49.3,46.98 98.48,94.09 147.56,141.3 -0.25,95.56 0.04,191.14 -0.15,286.73 -30.69,28.19 -61.19,56.53 -91.93,84.64 37.07,28.74 74.25,57.28 111.29,86.02l0 295.08c-55.16,52.76 -110.31,105.53 -165.7,158.04l-441.83 0c-0.05,-171.78 0.1,-343.56 -0.08,-515.31 -70.68,0.02 -141.37,0 -212.08,0 -54.83,-53.66 -110.34,-106.65 -164.82,-160.64l0 -213.23c94.71,-0.02 189.4,0.03 284.11,-0.02 0.07,43.62 -0.02,87.26 0.05,130.88 13.29,-0.03 26.54,0 39.83,0 0.05,-51.25 0,-102.49 0.03,-153.74 -47.49,-3.31 -94.94,-7.27 -142.45,-10.64 -7.8,0.35 -12.44,-6.75 -17.84,-11.17 -54.54,-49.7 -109.17,-99.29 -163.73,-148.94l0 -324.94c55.18,-53.54 110.51,-107.01 166.22,-159.99zm-151.97 166.17l0 0c0.23,104.08 -0.02,208.17 0.13,312.25 55.85,50.55 111.53,101.27 167.24,151.99 51.35,3.71 102.69,7.88 154.06,11.56 4.29,0.03 2.09,5.94 2.74,8.55 -0.32,57.8 0.32,115.6 -0.32,173.4 -22.71,-0.32 -45.44,-0.2 -68.15,-0.07 -0.37,-43.64 -0.05,-87.29 -0.15,-130.96 -85.16,0 -170.31,0 -255.47,0 -0.03,64.23 0.07,128.47 -0.03,192.7 51.85,50.79 103.99,101.26 156.05,151.79 88.69,0.2 177.37,0.05 266.05,0.09 52.46,-50.69 105.33,-101.01 157.52,-151.98 -0.2,-104.19 -0.1,-208.37 -0.07,-312.56 -51.62,-48.08 -103.66,-95.68 -155.38,-143.66 -4.41,-3.84 -8.48,-9.47 -15.03,-8.85 -51.2,-4.09 -102.34,-8.6 -153.51,-12.76 -0.33,-59.84 0,-119.71 -0.15,-179.58 22.85,-0.08 45.71,-0.03 68.59,-0.03 -0.02,44.87 -0.02,89.73 0,134.57 85.14,0.03 170.28,0.03 255.43,0 0.1,-65.48 -0.13,-130.95 0.12,-196.43 -54.38,-49.42 -109.49,-98.1 -164.03,-147.4 -2.56,-1.92 -4.93,-5.21 -8.6,-4.44 -83.19,-0.05 -166.39,0.03 -249.59,-0.02 -52.24,50.87 -104.98,101.22 -157.45,151.84zm555.59 364.72l0 0c8.98,8.25 18.1,16.32 26.8,24.87 68.39,0.13 136.81,0.03 205.2,0.05 41.23,39.18 81.98,78.86 123.4,117.84 0.33,84.05 -0.22,168.12 0.28,252.19 -37.49,35.69 -76.12,70.19 -113.91,105.58 44.74,34.47 89.28,69.19 134.19,103.41 0.05,85.42 0.3,170.86 -0.1,256.27 -7.35,8.63 -16.4,15.8 -24.35,23.9 -40.05,37.99 -79.7,76.37 -119.93,114.16 -128.19,-0.1 -256.35,-0.03 -384.54,-0.03 -0.07,-158.91 0,-317.81 -0.05,-476.7 -8.3,0 -16.6,0 -24.9,0 0.1,167.24 -0.17,334.46 0.15,501.68 140,-0.2 280,-0.03 420.03,-0.08 53.29,-50.32 105.9,-101.34 159.27,-151.59 0.05,-93.21 0.1,-186.41 0,-279.6 -40.23,-31.11 -80.51,-62.14 -120.74,-93.22 33.3,-30.53 66.53,-61.14 99.63,-91.89 -0.08,-91.67 0,-183.37 -0.05,-275.07 -46.29,-43.72 -91.8,-88.31 -138.24,-131.85 -80.73,0.18 -161.43,0.03 -242.14,0.08zm38.81 39.9l0 0c0.05,44.44 -0.07,88.91 0.05,133.35 49.2,0.12 98.4,0.02 147.6,0.05 0.13,88.6 0.1,177.23 0,265.84 -53.91,0.05 -107.82,0.05 -161.73,0 -0.2,-21.21 0.17,-42.42 -0.18,-63.63 -12.03,9.29 -22.1,20.83 -33.27,31.13 -39.01,37.41 -77.84,75.02 -116.82,112.46 -3.17,3.59 -8.4,1.92 -12.56,2.54 -0.05,153.88 -0.1,307.77 0,461.67 121.63,0.1 243.24,-0.02 364.84,0.05 44.77,-43.36 90.25,-85.98 135.07,-129.3 0.02,-80.88 0.05,-161.76 0,-242.67 -47.51,-36.34 -94.64,-73.2 -142.2,-109.47 5.54,-6.6 12.32,-11.98 18.57,-17.87 34.07,-31.68 68.57,-62.91 102.49,-94.76 -0.22,-80.01 -0.07,-160.04 -0.07,-240.07 -37.54,-36.81 -76.05,-72.61 -113.66,-109.34 -62.71,0 -125.42,-0.03 -188.13,0.02zm0.13 147.65l0 0c0.05,79.16 -0.1,158.3 0.09,237.46 44.4,-0.1 88.79,-0.1 133.18,0 0.17,-79.16 0.02,-158.3 0.07,-237.46 -44.46,0 -88.9,0 -133.34,0zm-569.58 -541.23c47.71,-45.99 95.69,-91.67 143.07,-137.98 77.39,0 154.78,0.07 232.2,-0.03 51.61,45.91 102.96,92.2 154.45,138.31 -0.05,53.19 0,106.37 -0.02,159.59 -68.35,0.02 -136.66,0 -205.01,0 -0.02,-44.86 0.05,-89.73 -0.02,-134.59 -39.85,0.02 -79.73,0.02 -119.59,0 -0.05,76.17 0,152.34 -0.02,228.5 58.32,4.67 116.64,9.5 174.94,14.68 49.63,46.31 99.55,92.32 149.6,138.16 0.25,96.91 0.02,193.79 0.1,290.69 -47.46,46.21 -95.41,91.95 -143.04,138.01 -81.56,0.05 -163.13,-0.05 -244.69,0.05 -47.38,-45.96 -94.84,-91.82 -141.92,-138.06 0.05,-52.04 -0.1,-104.08 0.08,-156.12 68.29,0.02 136.61,0.02 204.9,0 0.08,43.64 -0.02,87.26 0.05,130.88 39.86,-0.03 79.74,-0.03 119.59,0 -0.03,-76.85 0.15,-153.69 -0.08,-230.53 -55.63,-4.11 -111.26,-8.45 -166.89,-12.64 -3.51,0.15 -6.43,-1.67 -8.82,-4.03 -49.5,-45.34 -99.48,-90.18 -148.88,-135.64 0.08,-96.41 0.05,-192.84 0,-289.25zm148.33 -122.88l0 0c-44.19,42.95 -88.61,85.74 -133.22,128.24 -0.3,92.74 -0.15,185.51 -0.08,278.25 48.21,43.62 96.14,87.56 144.41,131.08 59.87,4.21 119.72,8.95 179.53,13.56 -0.04,86.04 0.15,172.1 -0.09,258.14 -49.4,-0.25 -98.8,0.23 -148.21,-0.22 0.2,-43.54 0.05,-87.06 0.1,-130.61 -58.59,0 -117.19,0 -175.79,0 0.05,45.47 -0.15,90.9 0.08,136.34 44.11,42.89 88.11,85.94 132.5,128.54 77.49,-0.15 154.98,0.24 232.47,-0.18 6.13,-3.49 10.69,-9.17 15.85,-13.91 39.6,-38.06 78.98,-76.34 118.76,-114.22 0.38,-93 -0.05,-185.99 0.23,-278.96 -45.19,-42.27 -90.98,-83.9 -136.24,-126.09 -2.02,-1.72 -3.91,-3.69 -6.33,-4.79 -60.52,-5.46 -121.16,-9.67 -181.6,-15.63 0.3,-85.24 -0.27,-170.5 0.3,-255.74 49.32,0.29 98.65,0.02 147.97,0.15 -0.02,44.78 0.08,89.57 -0.04,134.39 58.62,0.37 117.24,0.15 175.86,0.1 -0.05,-45.29 0.05,-90.58 -0.05,-135.87 0.72,-3.73 -2.76,-5.75 -4.96,-8 -46.78,-41.4 -92.87,-83.57 -139.75,-124.84 -73.9,0.37 -147.8,-0.2 -221.7,0.27zm446.79 689.66c27.42,-0.02 54.84,-0.02 82.25,0 0.03,62.11 0,124.2 0.03,186.31 -27.42,0.03 -54.81,-0.02 -82.23,0.03 -0.12,-62.12 -0.02,-124.23 -0.05,-186.34zm14.98 14.98l0 0c-0.02,52.12 -0.02,104.23 0,156.38 17.43,0 34.87,0 52.3,-0.03 0.02,-52.12 0.02,-104.23 0,-156.35 -17.43,-0.03 -34.87,-0.03 -52.3,0zm-57.25 344.7c54.76,-0.05 109.52,-0.05 164.28,0 0.1,92.37 0.02,184.74 0.02,277.14 -54.75,0 -109.54,0 -164.3,0 -0.02,-92.37 -0.05,-184.77 0,-277.14zm14.26 14.19l0 0c-0.03,82.85 0,165.72 -0.03,248.57 45.32,0.02 90.6,0.17 135.89,-0.08 -0.12,-82.82 -0.02,-165.64 -0.05,-248.47 -45.26,-0.07 -90.55,0 -135.81,-0.02zm40.5 40.52l0 0c-0.02,55.86 0,111.71 -0.02,167.57 18.27,0.03 36.56,0.03 54.83,0 -0.02,-55.86 0.02,-111.71 -0.02,-167.57 -18.28,-0.02 -36.54,-0.02 -54.79,0z"/>
   <path class="fil0" d="M1003.27 603.05c62.71,-0.05 125.42,-0.02 188.13,-0.02 37.61,36.73 76.12,72.53 113.66,109.34 0,80.03 -0.15,160.06 0.07,240.07 -33.92,31.85 -68.42,63.08 -102.49,94.76 -6.25,5.89 -13.03,11.27 -18.57,17.87 47.56,36.27 94.69,73.13 142.2,109.47 0.05,80.91 0.02,161.79 0,242.67 -44.82,43.32 -90.3,85.94 -135.07,129.3 -121.6,-0.07 -243.21,0.05 -364.84,-0.05 -0.1,-153.9 -0.05,-307.79 0,-461.67 4.16,-0.62 9.39,1.05 12.56,-2.54 38.98,-37.44 77.81,-75.05 116.82,-112.46 11.17,-10.3 21.24,-21.84 33.27,-31.13 0.35,21.21 -0.02,42.42 0.18,63.63 53.91,0.05 107.82,0.05 161.73,0 0.1,-88.61 0.13,-177.24 0,-265.84 -49.2,-0.03 -98.4,0.07 -147.6,-0.05 -0.12,-44.44 0,-88.91 -0.05,-133.35zm-421.12 -516.46c73.9,-0.47 147.8,0.1 221.7,-0.27 46.88,41.27 92.97,83.44 139.75,124.84 2.2,2.25 5.68,4.27 4.96,8 0.1,45.29 0,90.58 0.05,135.87 -58.62,0.05 -117.24,0.27 -175.86,-0.1 0.12,-44.82 0.02,-89.61 0.04,-134.39 -49.32,-0.13 -98.65,0.14 -147.97,-0.15 -0.57,85.24 0,170.5 -0.3,255.74 60.44,5.96 121.08,10.17 181.6,15.63 2.42,1.1 4.31,3.07 6.33,4.79 45.26,42.19 91.05,83.82 136.24,126.09 -0.28,92.97 0.15,185.96 -0.23,278.96 -39.78,37.88 -79.16,76.16 -118.76,114.22 -5.16,4.74 -9.72,10.42 -15.85,13.91 -77.49,0.42 -154.98,0.03 -232.47,0.18 -44.39,-42.6 -88.39,-85.65 -132.5,-128.54 -0.23,-45.44 -0.03,-90.87 -0.08,-136.34 58.6,0 117.2,0 175.79,0 -0.05,43.55 0.1,87.07 -0.1,130.61 49.41,0.45 98.81,-0.03 148.21,0.22 0.24,-86.04 0.05,-172.1 0.09,-258.14 -59.81,-4.61 -119.66,-9.35 -179.53,-13.56 -48.27,-43.52 -96.2,-87.46 -144.41,-131.08 -0.07,-92.74 -0.22,-185.51 0.08,-278.25 44.61,-42.5 89.03,-85.29 133.22,-128.24zm404.52 1049.34l0 0c-0.05,92.37 -0.02,184.77 0,277.14 54.76,0 109.55,0 164.3,0 0,-92.4 0.08,-184.77 -0.02,-277.14 -54.76,-0.05 -109.52,-0.05 -164.28,0z"/>
  </g>
 </g>
</svg>
